<?xml version="1.0" encoding="UTF-8"?>
<svg id="Layer_2" data-name="Layer 2" xmlns="http://www.w3.org/2000/svg" viewBox="0 0 100 100">
  <defs>
    <style>
      .cls-1 {
        fill: #fff;
      }

      .cls-1, .cls-2 {
        fill-rule: evenodd;
        stroke-width: 0px;
      }

      .cls-2 {
        fill: #4f3fff;
      }
    </style>
  </defs>
  <g id="Qrius_Logo" data-name="Qrius Logo">
    <g>
      <path class="cls-1" d="M32.3,60c6.3-10.9,7.6-21,1.2-32L0,60h32.3Z"/>
      <path class="cls-2" d="M32.4,59.6l23.9-22.8c4.5-4.3,4.5-11.2,0-15.5L34,0H.6l30.4,29.1h0c6.4,10.5,6.1,20.2,1.2,30.4,0,0,0,0,0,0,0,0,0,0,0,0Z"/>
      <path class="cls-1" d="M67.7,100c-6.3-10.9-7.6-21-1.2-32l33.5,32h-32.3Z"/>
      <path class="cls-2" d="M67.6,99.6l-23.9-22.8c-4.5-4.3-4.5-11.2,0-15.5l22.3-21.3h33.4l-30.4,29.1h0c-6.4,10.5-6.1,20.2-1.2,30.4,0,0,0,0,0,0,0,0,0,0,0,0Z"/>
    </g>
  </g>
</svg>